<mxfile host="app.diagrams.net" agent="Mozilla/5.0 (Windows NT 10.0; Win64; x64) AppleWebKit/537.36 (KHTML, like Gecko) Chrome/138.0.0.0 Safari/537.36" version="28.0.7">
  <diagram name="Page-1" id="NMhV9_qlkmKbRMJRIKp-">
    <mxGraphModel dx="2239" dy="749" grid="1" gridSize="10" guides="1" tooltips="1" connect="1" arrows="1" fold="1" page="1" pageScale="1" pageWidth="850" pageHeight="1100" math="0" shadow="0">
      <root>
        <mxCell id="0" />
        <mxCell id="1" parent="0" />
        <mxCell id="mV_eqW9sCrlM-CQLXGUk-12" value="&lt;font size=&quot;3&quot;&gt;student information system&lt;/font&gt;" style="rounded=0;whiteSpace=wrap;html=1;fillColor=#e51400;fontColor=#ffffff;strokeColor=#B20000;" vertex="1" parent="1">
          <mxGeometry x="180" y="20" width="430" height="60" as="geometry" />
        </mxCell>
        <mxCell id="mV_eqW9sCrlM-CQLXGUk-15" value="" style="edgeStyle=orthogonalEdgeStyle;rounded=0;orthogonalLoop=1;jettySize=auto;html=1;" edge="1" parent="1">
          <mxGeometry relative="1" as="geometry">
            <mxPoint x="140" y="140.0666666666666" as="sourcePoint" />
            <mxPoint x="220" y="140" as="targetPoint" />
          </mxGeometry>
        </mxCell>
        <mxCell id="mV_eqW9sCrlM-CQLXGUk-18" value="" style="edgeStyle=orthogonalEdgeStyle;rounded=0;orthogonalLoop=1;jettySize=auto;html=1;" edge="1" parent="1">
          <mxGeometry relative="1" as="geometry">
            <mxPoint x="80.0666666666666" y="170" as="sourcePoint" />
            <mxPoint x="80" y="230" as="targetPoint" />
          </mxGeometry>
        </mxCell>
        <mxCell id="mV_eqW9sCrlM-CQLXGUk-30" value="" style="edgeStyle=orthogonalEdgeStyle;rounded=0;orthogonalLoop=1;jettySize=auto;html=1;" edge="1" parent="1" source="mV_eqW9sCrlM-CQLXGUk-16">
          <mxGeometry relative="1" as="geometry">
            <mxPoint x="260" y="230" as="targetPoint" />
          </mxGeometry>
        </mxCell>
        <mxCell id="mV_eqW9sCrlM-CQLXGUk-16" value="&lt;font size=&quot;3&quot;&gt;login to system&lt;/font&gt;" style="ellipse;whiteSpace=wrap;html=1;aspect=fixed;fillColor=#e51400;fontColor=#ffffff;strokeColor=#B20000;" vertex="1" parent="1">
          <mxGeometry x="220" y="100" width="80" height="80" as="geometry" />
        </mxCell>
        <mxCell id="mV_eqW9sCrlM-CQLXGUk-21" value="" style="edgeStyle=orthogonalEdgeStyle;rounded=0;orthogonalLoop=1;jettySize=auto;html=1;" edge="1" parent="1" source="mV_eqW9sCrlM-CQLXGUk-19">
          <mxGeometry relative="1" as="geometry">
            <mxPoint x="80" y="370" as="targetPoint" />
          </mxGeometry>
        </mxCell>
        <mxCell id="mV_eqW9sCrlM-CQLXGUk-19" value="&lt;font size=&quot;3&quot;&gt;forgot password&lt;/font&gt;" style="ellipse;whiteSpace=wrap;html=1;aspect=fixed;fillColor=#e51400;fontColor=#ffffff;strokeColor=#B20000;" vertex="1" parent="1">
          <mxGeometry x="40" y="230" width="80" height="80" as="geometry" />
        </mxCell>
        <mxCell id="mV_eqW9sCrlM-CQLXGUk-22" value="&lt;font size=&quot;3&quot;&gt;send email to user&lt;/font&gt;" style="ellipse;whiteSpace=wrap;html=1;aspect=fixed;fillColor=#e51400;fontColor=#ffffff;strokeColor=#B20000;" vertex="1" parent="1">
          <mxGeometry x="40" y="370" width="80" height="80" as="geometry" />
        </mxCell>
        <mxCell id="mV_eqW9sCrlM-CQLXGUk-23" value="&lt;font size=&quot;3&quot;&gt;manage system admin&lt;/font&gt;" style="rounded=0;whiteSpace=wrap;html=1;fillColor=#e51400;fontColor=#ffffff;strokeColor=#B20000;" vertex="1" parent="1">
          <mxGeometry x="-70" y="710" width="200" height="60" as="geometry" />
        </mxCell>
        <mxCell id="mV_eqW9sCrlM-CQLXGUk-26" value="&lt;font size=&quot;3&quot;&gt;manage user permissions&lt;/font&gt;" style="rounded=0;whiteSpace=wrap;html=1;fillColor=#e51400;fontColor=#ffffff;strokeColor=#B20000;" vertex="1" parent="1">
          <mxGeometry x="450" y="710" width="200" height="60" as="geometry" />
        </mxCell>
        <mxCell id="mV_eqW9sCrlM-CQLXGUk-27" value="&lt;font size=&quot;3&quot;&gt;manage rules to user&lt;/font&gt;" style="rounded=0;whiteSpace=wrap;html=1;fillColor=#e51400;fontColor=#ffffff;strokeColor=#B20000;" vertex="1" parent="1">
          <mxGeometry x="190" y="710" width="220" height="60" as="geometry" />
        </mxCell>
        <mxCell id="mV_eqW9sCrlM-CQLXGUk-35" value="" style="edgeStyle=orthogonalEdgeStyle;rounded=0;orthogonalLoop=1;jettySize=auto;html=1;" edge="1" parent="1" source="mV_eqW9sCrlM-CQLXGUk-31" target="mV_eqW9sCrlM-CQLXGUk-16">
          <mxGeometry relative="1" as="geometry" />
        </mxCell>
        <mxCell id="mV_eqW9sCrlM-CQLXGUk-31" value="&lt;font size=&quot;3&quot;&gt;check credentials&lt;/font&gt;" style="ellipse;whiteSpace=wrap;html=1;aspect=fixed;fillColor=#e51400;fontColor=#ffffff;strokeColor=#B20000;" vertex="1" parent="1">
          <mxGeometry x="220" y="230" width="80" height="80" as="geometry" />
        </mxCell>
        <mxCell id="mV_eqW9sCrlM-CQLXGUk-45" value="" style="edgeStyle=orthogonalEdgeStyle;rounded=0;orthogonalLoop=1;jettySize=auto;html=1;" edge="1" parent="1" source="mV_eqW9sCrlM-CQLXGUk-32">
          <mxGeometry relative="1" as="geometry">
            <mxPoint x="450" y="240" as="targetPoint" />
          </mxGeometry>
        </mxCell>
        <mxCell id="mV_eqW9sCrlM-CQLXGUk-32" value="&lt;font size=&quot;3&quot;&gt;check rules access&lt;/font&gt;" style="ellipse;whiteSpace=wrap;html=1;aspect=fixed;fillColor=#e51400;fontColor=#ffffff;strokeColor=#B20000;" vertex="1" parent="1">
          <mxGeometry x="410" y="100" width="80" height="80" as="geometry" />
        </mxCell>
        <mxCell id="mV_eqW9sCrlM-CQLXGUk-43" value="" style="endArrow=classic;html=1;rounded=0;" edge="1" parent="1">
          <mxGeometry width="50" height="50" relative="1" as="geometry">
            <mxPoint x="300" y="250" as="sourcePoint" />
            <mxPoint x="410" y="160" as="targetPoint" />
            <Array as="points" />
          </mxGeometry>
        </mxCell>
        <mxCell id="mV_eqW9sCrlM-CQLXGUk-54" value="" style="edgeStyle=orthogonalEdgeStyle;rounded=0;orthogonalLoop=1;jettySize=auto;html=1;entryX=0;entryY=0;entryDx=0;entryDy=0;" edge="1" parent="1" source="mV_eqW9sCrlM-CQLXGUk-46" target="mV_eqW9sCrlM-CQLXGUk-26">
          <mxGeometry relative="1" as="geometry">
            <mxPoint x="450" y="410" as="targetPoint" />
          </mxGeometry>
        </mxCell>
        <mxCell id="mV_eqW9sCrlM-CQLXGUk-46" value="&lt;font size=&quot;3&quot;&gt;manage modules&lt;/font&gt;" style="ellipse;whiteSpace=wrap;html=1;aspect=fixed;fillColor=#e51400;fontColor=#ffffff;strokeColor=#B20000;" vertex="1" parent="1">
          <mxGeometry x="410" y="240" width="80" height="80" as="geometry" />
        </mxCell>
        <mxCell id="mV_eqW9sCrlM-CQLXGUk-47" value="" style="endArrow=classic;html=1;rounded=0;exitX=0.033;exitY=0.647;exitDx=0;exitDy=0;exitPerimeter=0;" edge="1" parent="1" source="mV_eqW9sCrlM-CQLXGUk-46" target="mV_eqW9sCrlM-CQLXGUk-23">
          <mxGeometry width="50" height="50" relative="1" as="geometry">
            <mxPoint x="235" y="400" as="sourcePoint" />
            <mxPoint x="285" y="350" as="targetPoint" />
          </mxGeometry>
        </mxCell>
        <mxCell id="mV_eqW9sCrlM-CQLXGUk-57" value="&lt;font size=&quot;3&quot;&gt;manage timetable details&lt;/font&gt;" style="rounded=0;whiteSpace=wrap;html=1;fillColor=#e51400;fontColor=#ffffff;strokeColor=#B20000;" vertex="1" parent="1">
          <mxGeometry x="680" y="90" width="220" height="60" as="geometry" />
        </mxCell>
        <mxCell id="mV_eqW9sCrlM-CQLXGUk-58" value="&lt;font size=&quot;3&quot;&gt;manage&amp;nbsp; teacher profile&lt;/font&gt;" style="rounded=0;whiteSpace=wrap;html=1;fillColor=#e51400;fontColor=#ffffff;strokeColor=#B20000;" vertex="1" parent="1">
          <mxGeometry x="675" y="523" width="230" height="55" as="geometry" />
        </mxCell>
        <mxCell id="mV_eqW9sCrlM-CQLXGUk-59" value="&lt;font size=&quot;3&quot;&gt;manage fees&lt;/font&gt;" style="rounded=0;whiteSpace=wrap;html=1;fillColor=#e51400;fontColor=#ffffff;strokeColor=#B20000;" vertex="1" parent="1">
          <mxGeometry x="680" y="440" width="220" height="60" as="geometry" />
        </mxCell>
        <mxCell id="mV_eqW9sCrlM-CQLXGUk-60" value="&lt;font size=&quot;3&quot;&gt;manage student details&lt;/font&gt;" style="rounded=0;whiteSpace=wrap;html=1;fillColor=#e51400;fontColor=#ffffff;strokeColor=#B20000;" vertex="1" parent="1">
          <mxGeometry x="680" y="350" width="220" height="60" as="geometry" />
        </mxCell>
        <mxCell id="mV_eqW9sCrlM-CQLXGUk-62" value="&lt;font size=&quot;3&quot;&gt;maange attendence details&lt;/font&gt;" style="rounded=0;whiteSpace=wrap;html=1;fillColor=#e51400;fontColor=#ffffff;strokeColor=#B20000;" vertex="1" parent="1">
          <mxGeometry x="680" y="180" width="220" height="60" as="geometry" />
        </mxCell>
        <mxCell id="mV_eqW9sCrlM-CQLXGUk-67" value="" style="endArrow=classic;html=1;rounded=0;exitX=1.034;exitY=0.381;exitDx=0;exitDy=0;exitPerimeter=0;" edge="1" parent="1" source="mV_eqW9sCrlM-CQLXGUk-46">
          <mxGeometry width="50" height="50" relative="1" as="geometry">
            <mxPoint x="550" y="290" as="sourcePoint" />
            <mxPoint x="670" y="110" as="targetPoint" />
            <Array as="points" />
          </mxGeometry>
        </mxCell>
        <mxCell id="mV_eqW9sCrlM-CQLXGUk-68" value="" style="endArrow=classic;html=1;rounded=0;" edge="1" parent="1">
          <mxGeometry width="50" height="50" relative="1" as="geometry">
            <mxPoint x="500" y="280" as="sourcePoint" />
            <mxPoint x="670" y="200" as="targetPoint" />
            <Array as="points" />
          </mxGeometry>
        </mxCell>
        <mxCell id="mV_eqW9sCrlM-CQLXGUk-69" value="" style="endArrow=classic;html=1;rounded=0;exitX=1.021;exitY=0.621;exitDx=0;exitDy=0;exitPerimeter=0;" edge="1" parent="1" source="mV_eqW9sCrlM-CQLXGUk-46">
          <mxGeometry width="50" height="50" relative="1" as="geometry">
            <mxPoint x="490" y="370" as="sourcePoint" />
            <mxPoint x="670" y="300" as="targetPoint" />
          </mxGeometry>
        </mxCell>
        <mxCell id="mV_eqW9sCrlM-CQLXGUk-70" value="" style="endArrow=classic;html=1;rounded=0;entryX=0;entryY=0.75;entryDx=0;entryDy=0;" edge="1" parent="1" source="mV_eqW9sCrlM-CQLXGUk-46" target="mV_eqW9sCrlM-CQLXGUk-60">
          <mxGeometry width="50" height="50" relative="1" as="geometry">
            <mxPoint x="490" y="370" as="sourcePoint" />
            <mxPoint x="540" y="320" as="targetPoint" />
          </mxGeometry>
        </mxCell>
        <mxCell id="mV_eqW9sCrlM-CQLXGUk-71" value="" style="endArrow=classic;html=1;rounded=0;" edge="1" parent="1">
          <mxGeometry width="50" height="50" relative="1" as="geometry">
            <mxPoint x="490" y="310" as="sourcePoint" />
            <mxPoint x="670" y="470" as="targetPoint" />
          </mxGeometry>
        </mxCell>
        <mxCell id="mV_eqW9sCrlM-CQLXGUk-72" value="" style="endArrow=classic;html=1;rounded=0;" edge="1" parent="1">
          <mxGeometry width="50" height="50" relative="1" as="geometry">
            <mxPoint x="490" y="320" as="sourcePoint" />
            <mxPoint x="670" y="550" as="targetPoint" />
          </mxGeometry>
        </mxCell>
        <mxCell id="mV_eqW9sCrlM-CQLXGUk-73" value="" style="endArrow=classic;html=1;rounded=0;exitX=0.5;exitY=1;exitDx=0;exitDy=0;" edge="1" parent="1" source="mV_eqW9sCrlM-CQLXGUk-46">
          <mxGeometry width="50" height="50" relative="1" as="geometry">
            <mxPoint x="424.99737598657896" y="299.9988511838949" as="sourcePoint" />
            <mxPoint x="670" y="620" as="targetPoint" />
          </mxGeometry>
        </mxCell>
        <mxCell id="mV_eqW9sCrlM-CQLXGUk-74" value="" style="endArrow=classic;html=1;rounded=0;" edge="1" parent="1" source="mV_eqW9sCrlM-CQLXGUk-46">
          <mxGeometry width="50" height="50" relative="1" as="geometry">
            <mxPoint x="380" y="500" as="sourcePoint" />
            <mxPoint x="320" y="700" as="targetPoint" />
            <Array as="points">
              <mxPoint x="340" y="640" />
            </Array>
          </mxGeometry>
        </mxCell>
        <mxCell id="mV_eqW9sCrlM-CQLXGUk-75" value="&lt;font size=&quot;3&quot;&gt;admin&lt;/font&gt;" style="rounded=0;whiteSpace=wrap;html=1;fillColor=#e51400;fontColor=#ffffff;strokeColor=#B20000;" vertex="1" parent="1">
          <mxGeometry x="20" y="110" width="120" height="60" as="geometry" />
        </mxCell>
        <mxCell id="mV_eqW9sCrlM-CQLXGUk-76" value="&lt;font size=&quot;3&quot;&gt;manage class&lt;/font&gt;" style="rounded=0;whiteSpace=wrap;html=1;fillColor=#e51400;fontColor=#ffffff;strokeColor=#B20000;" vertex="1" parent="1">
          <mxGeometry x="680" y="270" width="220" height="60" as="geometry" />
        </mxCell>
        <mxCell id="mV_eqW9sCrlM-CQLXGUk-84" value="&lt;font size=&quot;3&quot;&gt;manage report&lt;/font&gt;" style="rounded=0;whiteSpace=wrap;html=1;fillColor=#e51400;fontColor=#ffffff;strokeColor=#B20000;" vertex="1" parent="1">
          <mxGeometry x="675" y="600" width="230" height="50" as="geometry" />
        </mxCell>
      </root>
    </mxGraphModel>
  </diagram>
</mxfile>
